<svg id="visual" viewBox="0 0 900 600" width="900" height="600" xmlns="http://www.w3.org/2000/svg" xmlns:xlink="http://www.w3.org/1999/xlink" version="1.1"><g stroke-width="5" stroke-linejoin="bevel"><path d="M400 299L499 200L400 200Z" fill="#bfeec2" stroke="#ffffff"></path><path d="M400 299L500 299L499 200Z" fill="#ade1d2" stroke="#ffffff"></path><path d="M299 299L399 399L400 299Z" fill="#b3e8cc" stroke="#ffffff"></path><path d="M400 299L499 400L500 299Z" fill="#add9d5" stroke="#ffffff"></path><path d="M500 299L599 199L499 200Z" fill="#b0d1d3" stroke="#ffffff"></path><path d="M499 200L399 99L400 200Z" fill="#b0d1d3" stroke="#ffffff"></path><path d="M499 400L599 300L500 299Z" fill="#add9d5" stroke="#ffffff"></path><path d="M500 299L599 300L599 199Z" fill="#c7f0bd" stroke="#ffffff"></path><path d="M399 399L499 400L400 299Z" fill="#b3e8cc" stroke="#ffffff"></path><path d="M400 200L299 299L400 299Z" fill="#add9d5" stroke="#ffffff"></path><path d="M300 100L299 200L400 200Z" fill="#b0d1d3" stroke="#ffffff"></path><path d="M400 200L299 200L299 299Z" fill="#c7f0bd" stroke="#ffffff"></path><path d="M500 99L399 99L499 200Z" fill="#b3cdd1" stroke="#ffffff"></path><path d="M599 199L500 99L499 200Z" fill="#b8ebc7" stroke="#ffffff"></path><path d="M399 99L300 100L400 200Z" fill="#bfeec2" stroke="#ffffff"></path><path d="M699 200L600 100L599 199Z" fill="#b3cdd1" stroke="#ffffff"></path><path d="M599 199L600 100L500 99Z" fill="#b0d1d3" stroke="#ffffff"></path><path d="M299 299L300 400L399 399Z" fill="#aed5d5" stroke="#ffffff"></path><path d="M400 500L500 499L499 400Z" fill="#b0d1d3" stroke="#ffffff"></path><path d="M499 400L600 399L599 300Z" fill="#bfeec2" stroke="#ffffff"></path><path d="M599 300L699 200L599 199Z" fill="#aed5d5" stroke="#ffffff"></path><path d="M699 300L699 200L599 300Z" fill="#ade1d2" stroke="#ffffff"></path><path d="M500 99L399 0L399 99Z" fill="#b8ebc7" stroke="#ffffff"></path><path d="M399 99L299 0L300 100Z" fill="#b0d1d3" stroke="#ffffff"></path><path d="M500 0L399 0L500 99Z" fill="#c7f0bd" stroke="#ffffff"></path><path d="M600 399L699 300L599 300Z" fill="#c7f0bd" stroke="#ffffff"></path><path d="M400 500L499 400L399 399Z" fill="#add9d5" stroke="#ffffff"></path><path d="M499 400L599 499L600 399Z" fill="#b3cdd1" stroke="#ffffff"></path><path d="M600 0L500 0L500 99Z" fill="#bfeec2" stroke="#ffffff"></path><path d="M300 400L400 500L399 399Z" fill="#b3e8cc" stroke="#ffffff"></path><path d="M299 200L199 299L299 299Z" fill="#afe5cf" stroke="#ffffff"></path><path d="M299 299L200 399L300 400Z" fill="#add9d5" stroke="#ffffff"></path><path d="M199 199L199 299L299 200Z" fill="#afe5cf" stroke="#ffffff"></path><path d="M199 100L199 199L300 100Z" fill="#b0d1d3" stroke="#ffffff"></path><path d="M300 100L199 199L299 200Z" fill="#b3cdd1" stroke="#ffffff"></path><path d="M199 299L200 399L299 299Z" fill="#add9d5" stroke="#ffffff"></path><path d="M300 400L299 500L400 500Z" fill="#b3cdd1" stroke="#ffffff"></path><path d="M500 499L599 499L499 400Z" fill="#bfeec2" stroke="#ffffff"></path><path d="M600 399L700 400L699 300Z" fill="#b3e8cc" stroke="#ffffff"></path><path d="M500 600L599 499L500 499Z" fill="#ade1d2" stroke="#ffffff"></path><path d="M399 0L299 0L399 99Z" fill="#b3e8cc" stroke="#ffffff"></path><path d="M700 100L600 0L600 100Z" fill="#afe5cf" stroke="#ffffff"></path><path d="M600 100L600 0L500 99Z" fill="#b3e8cc" stroke="#ffffff"></path><path d="M299 0L199 100L300 100Z" fill="#c7f0bd" stroke="#ffffff"></path><path d="M699 200L700 100L600 100Z" fill="#b3e8cc" stroke="#ffffff"></path><path d="M800 200L700 100L699 200Z" fill="#b8ebc7" stroke="#ffffff"></path><path d="M599 499L700 400L600 399Z" fill="#aed5d5" stroke="#ffffff"></path><path d="M699 300L800 299L699 200Z" fill="#add9d5" stroke="#ffffff"></path><path d="M200 499L299 500L300 400Z" fill="#aed5d5" stroke="#ffffff"></path><path d="M299 0L200 0L199 100Z" fill="#b3cdd1" stroke="#ffffff"></path><path d="M200 399L200 499L300 400Z" fill="#afe5cf" stroke="#ffffff"></path><path d="M100 399L200 499L200 399Z" fill="#afe5cf" stroke="#ffffff"></path><path d="M99 99L100 200L199 100Z" fill="#acddd4" stroke="#ffffff"></path><path d="M199 100L100 200L199 199Z" fill="#b8ebc7" stroke="#ffffff"></path><path d="M199 199L100 200L199 299Z" fill="#add9d5" stroke="#ffffff"></path><path d="M199 299L100 300L200 399Z" fill="#b3e8cc" stroke="#ffffff"></path><path d="M100 200L100 300L199 299Z" fill="#c7f0bd" stroke="#ffffff"></path><path d="M700 100L700 0L600 0Z" fill="#aed5d5" stroke="#ffffff"></path><path d="M800 399L800 299L699 300Z" fill="#b3e8cc" stroke="#ffffff"></path><path d="M700 100L799 100L700 0Z" fill="#afe5cf" stroke="#ffffff"></path><path d="M800 299L800 200L699 200Z" fill="#b8ebc7" stroke="#ffffff"></path><path d="M299 600L400 600L299 500Z" fill="#b3cdd1" stroke="#ffffff"></path><path d="M299 500L400 600L400 500Z" fill="#b3e8cc" stroke="#ffffff"></path><path d="M400 500L500 600L500 499Z" fill="#b0d1d3" stroke="#ffffff"></path><path d="M400 600L500 600L400 500Z" fill="#b3e8cc" stroke="#ffffff"></path><path d="M599 499L700 500L700 400Z" fill="#aed5d5" stroke="#ffffff"></path><path d="M699 600L700 500L599 499Z" fill="#aed5d5" stroke="#ffffff"></path><path d="M700 400L800 399L699 300Z" fill="#afe5cf" stroke="#ffffff"></path><path d="M100 300L100 399L200 399Z" fill="#add9d5" stroke="#ffffff"></path><path d="M800 200L799 100L700 100Z" fill="#b3e8cc" stroke="#ffffff"></path><path d="M500 600L599 600L599 499Z" fill="#b3cdd1" stroke="#ffffff"></path><path d="M799 500L800 399L700 400Z" fill="#b3cdd1" stroke="#ffffff"></path><path d="M200 600L299 600L299 500Z" fill="#bfeec2" stroke="#ffffff"></path><path d="M200 600L299 500L200 499Z" fill="#ade1d2" stroke="#ffffff"></path><path d="M200 0L99 99L199 100Z" fill="#b3e8cc" stroke="#ffffff"></path><path d="M100 200L0 299L100 300Z" fill="#b3e8cc" stroke="#ffffff"></path><path d="M0 400L99 500L100 399Z" fill="#aed5d5" stroke="#ffffff"></path><path d="M699 600L799 500L700 500Z" fill="#afe5cf" stroke="#ffffff"></path><path d="M700 500L799 500L700 400Z" fill="#c7f0bd" stroke="#ffffff"></path><path d="M99 500L200 600L200 499Z" fill="#b3cdd1" stroke="#ffffff"></path><path d="M900 99L800 0L799 100Z" fill="#add9d5" stroke="#ffffff"></path><path d="M799 100L800 0L700 0Z" fill="#afe5cf" stroke="#ffffff"></path><path d="M200 0L99 0L99 99Z" fill="#b8ebc7" stroke="#ffffff"></path><path d="M599 600L699 600L599 499Z" fill="#afe5cf" stroke="#ffffff"></path><path d="M0 299L100 399L100 300Z" fill="#b3cdd1" stroke="#ffffff"></path><path d="M100 399L99 500L200 499Z" fill="#b3cdd1" stroke="#ffffff"></path><path d="M0 199L0 299L100 200Z" fill="#c7f0bd" stroke="#ffffff"></path><path d="M0 199L100 200L99 99Z" fill="#b8ebc7" stroke="#ffffff"></path><path d="M0 99L0 199L99 99Z" fill="#b8ebc7" stroke="#ffffff"></path><path d="M800 299L900 299L800 200Z" fill="#acddd4" stroke="#ffffff"></path><path d="M800 200L900 199L799 100Z" fill="#add9d5" stroke="#ffffff"></path><path d="M800 399L900 299L800 299Z" fill="#bfeec2" stroke="#ffffff"></path><path d="M900 399L900 299L800 399Z" fill="#b8ebc7" stroke="#ffffff"></path><path d="M900 299L900 199L800 200Z" fill="#b3e8cc" stroke="#ffffff"></path><path d="M99 0L0 99L99 99Z" fill="#ade1d2" stroke="#ffffff"></path><path d="M0 299L0 400L100 399Z" fill="#b8ebc7" stroke="#ffffff"></path><path d="M900 499L900 399L800 399Z" fill="#b3e8cc" stroke="#ffffff"></path><path d="M900 199L900 99L799 100Z" fill="#bfeec2" stroke="#ffffff"></path><path d="M699 600L800 600L799 500Z" fill="#ade1d2" stroke="#ffffff"></path><path d="M799 500L900 499L800 399Z" fill="#b3cdd1" stroke="#ffffff"></path><path d="M99 500L99 600L200 600Z" fill="#aed5d5" stroke="#ffffff"></path><path d="M0 500L99 600L99 500Z" fill="#add9d5" stroke="#ffffff"></path><path d="M99 0L0 0L0 99Z" fill="#ade1d2" stroke="#ffffff"></path><path d="M0 400L0 500L99 500Z" fill="#c7f0bd" stroke="#ffffff"></path><path d="M800 600L900 499L799 500Z" fill="#b3cdd1" stroke="#ffffff"></path><path d="M900 99L900 0L800 0Z" fill="#aed5d5" stroke="#ffffff"></path><path d="M0 500L0 600L99 600Z" fill="#b3cdd1" stroke="#ffffff"></path><path d="M800 600L900 600L900 499Z" fill="#acddd4" stroke="#ffffff"></path></g></svg>